<svg id="Layer_1" data-name="Layer 1" xmlns="http://www.w3.org/2000/svg" width="64" height="64" viewBox="-16 10 64 64"><defs><style>.cls-1{fill:#fdfdfb;}</style></defs><title>Millennium-Falcon</title><g id="Millennium-Falcon" transform="rotate(30)"><path class="cls-1" d="M31.36,47.66a2.64,2.64,0,0,0-2.61,3.65c.82,1.67,4.19,1.85,5-.23A2.46,2.46,0,0,0,31.36,47.66Zm1.54,3.12c-.52,1.41-2.81,1.29-3.37.15a1.79,1.79,0,0,1,1.77-2.47A1.67,1.67,0,0,1,32.9,50.78Zm-1.58,3a2.14,2.14,0,0,0-2.12,3c.66,1.35,3.4,1.5,4-.18A2,2,0,0,0,31.32,53.76Zm1.11,2.47a1.43,1.43,0,0,1-2.45.11,1.3,1.3,0,0,1,1.29-1.8A1.21,1.21,0,0,1,32.43,56.23Zm8-6.88a2,2,0,0,0-1.9-2.77,2.14,2.14,0,0,0-2.12,3C37.06,50.89,39.8,51,40.42,49.35Zm-3.24-.19a1.3,1.3,0,0,1,1.29-1.8,1.21,1.21,0,0,1,1.16,1.69A1.43,1.43,0,0,1,37.18,49.16ZM25.27,46.75a2.14,2.14,0,0,0-2.12,3c.66,1.35,3.4,1.5,4-.18A2,2,0,0,0,25.27,46.75Zm1.11,2.47a1.43,1.43,0,0,1-2.45.11,1.3,1.3,0,0,1,1.29-1.8A1.21,1.21,0,0,1,26.38,49.23ZM23.21,51.7a2.14,2.14,0,0,0-2.12,3c.66,1.35,3.4,1.5,4-.18A2,2,0,0,0,23.21,51.7Zm1.11,2.47a1.43,1.43,0,0,1-2.45.11,1.3,1.3,0,0,1,1.29-1.8A1.21,1.21,0,0,1,24.32,54.17Zm16-2.72a2.14,2.14,0,0,0-2.12,3c.66,1.35,3.4,1.5,4-.18A2,2,0,0,0,40.37,51.45Zm1.11,2.47A1.43,1.43,0,0,1,39,54a1.3,1.3,0,0,1,1.29-1.8A1.21,1.21,0,0,1,41.48,53.92Zm15.77-30.6c-.2-.75-2.71-7.2-2.9-7.51s-3.25-.12-3.88,0-1.54,1.28-1.54,1.28S42.79,3.74,42.28,3.37s-8.19-.21-8.56,0-.19,9.13-.19,9.13A11.68,11.68,0,0,0,30,12.43s-.36-8.56-.49-8.87-6.26-.31-7.06,0-6,8.31-9.61,16.51A71,71,0,0,0,8.05,35.76c-.31.19-1.18.15-1.37.47a34.52,34.52,0,0,0,1,7.67A1.54,1.54,0,0,0,9.3,45l1.3,2.54a12.19,12.19,0,0,0,3.21,3.94,7.67,7.67,0,0,0-.71,2.08c0,.75,7,7.36,18.53,7.25s18.66-7.5,18.84-8.07a12.18,12.18,0,0,0,.08-2.44s1.85-1.41,3.94-5.89a15.4,15.4,0,0,0,.94-9.21S56.85,34.52,57,34,57.45,24.07,57.25,23.32ZM35.82,5.5c.39-.41,4.87-.41,5.31,0s7,14.42,7.11,14.67a8.15,8.15,0,0,1-.1,1.44A14,14,0,0,0,41,16.52c-4.4-1.16-5.4-1-5.4-1.14S35.7,5.63,35.82,5.5Zm0,11.44a27.67,27.67,0,0,1,7.36,2.41,11.25,11.25,0,0,1,4.66,5s-.57,2.7-.69,2.89c0,0-.21.19-.51.43a3.68,3.68,0,0,0-.52-2.13A4.2,4.2,0,0,0,41,24.12a3.85,3.85,0,0,0-2.1,4.61,3.33,3.33,0,0,0,3.47,2.36l-3.86,3a7.21,7.21,0,0,0-1.55-2.53,7.07,7.07,0,0,0-1.51-.72S35.68,17.19,35.8,16.94Zm9.73,11.63-2,1.57c-1.76.5-3.55-.23-3.86-1.7a3,3,0,0,1,1.65-3.62A3.31,3.31,0,0,1,45.38,26,2.76,2.76,0,0,1,45.54,28.57Zm-7.61,9.89c.18,4.25-2.84,6.59-6.55,6.76a6,6,0,0,1-6.05-5.54c-.17-2.43.09-8.13,6.21-8.22C35,31.42,37.75,34.22,37.93,38.47ZM29.06,14.14a6.69,6.69,0,0,1,2.74-.43,4,4,0,0,1,2.32.52c.13.25.07,15.85-.24,15.91s-4,.39-4.13,0S28.82,14.46,29.06,14.14Zm-9-4.32c1.63-2.66,2.72-4.49,3.16-4.56s4.75,0,4.82.28,0,7.31,0,7.31-1.23.9-1.22,1.52V15A65.53,65.53,0,0,0,15.05,20S18.46,12.48,20.1,9.82ZM12.75,25.64c1.92-2.86,6-5.41,8.37-6.55a37.69,37.69,0,0,1,6.06-2.25c.15,0,.83,12,.83,12l-1.24-1.73s-.45.34-.41.51,1.77,2.88,1.77,3-.39.36-.61.55a2.16,2.16,0,0,1-.31.24,23.77,23.77,0,0,0-2.08-2.71c-.19,0-.47.3-.43.36s2,2.69,1.91,2.8-.86.83-.86.83a15.41,15.41,0,0,0-1.69-2.22c-.21,0-.49.36-.45.45s1.69,2.38,1.65,2.49a8,8,0,0,1-.53.7,23,23,0,0,0-1.88-2.3c-.15,0-.49.41-.43.51s1.82,2.34,1.82,2.4-.4.76-.44.9l-.06.21a38.6,38.6,0,0,0-2.52-3.16c-.14,0-.45.24-.41.36s2.58,3.76,2.58,3.76a8.83,8.83,0,0,1-1.1.11c-.06,0-2.69-3.36-2.76-3.34S19,34,19,34.08s2.31,3,2.23,3a10.49,10.49,0,0,1-1.83.1c-.17-.1-1.65-2.32-1.76-2.32s-.49.3-.45.4,1.21,2,1.14,2-3.88-.32-5.8-.57-2.91-.61-2.89-.84S10.73,28.64,12.75,25.64ZM9.67,43.26c-.16-.12-1.52-5.78-1-5.86,1-.14,5.55,1,9.06,1.13s5.91.07,5.91.16.13,1.62.13,1.62S9.83,43.38,9.67,43.26Zm2.48,3.86c-.65-1.36-1.08-2.54-.87-2.64S24,41.59,24.11,41.68a12.84,12.84,0,0,1,.59,1.18A15.13,15.13,0,0,1,23,44.39c0-.12-.84-1.45-1-1.42s-.47.17-.43.29.81,1.58.81,1.58-.77.8-.86.67A25.65,25.65,0,0,0,20,43.3c-.12,0-.46.42-.46.42a15.25,15.25,0,0,1,1.2,2.35,5.46,5.46,0,0,1-1,.64,17.07,17.07,0,0,0-1.93-2.59c-.25,0-.81.17-.77.45s1.71,2.72,1.62,2.78l-.8.55s-2-3.12-2.16-3.11a5.06,5.06,0,0,0-.8.39S17,48.51,17,48.61a7.82,7.82,0,0,1-.71.58,38.15,38.15,0,0,0-2.67-3.7c-.15.1-.68.3-.62.42s2.46,4,2.46,4l-.67.67A20.12,20.12,0,0,1,12.16,47.11Zm19,12.34C19.92,59.93,15.32,53.77,15.4,53s9.76-8.76,10.36-8.49c0,0,1.61,2.41,5.7,2.2A9.77,9.77,0,0,0,38,43.5l7.09,4.3c2.06,1.24,3.31,2.84,3.29,3.31S42.34,59,31.13,59.45ZM51.52,46.16a5.23,5.23,0,0,1-.91,1.17,12.44,12.44,0,0,0-.67-2.46c-.19,0-.84.17-.74.42s.68,2.86.69,3-.7.83-.7.83a1.41,1.41,0,0,1-.32-.31c-.07-.12-.9-4.33-1-4.39s-.82-.3-.81,0,.76,3.7.64,3.68S46,46.87,46,46.87s0-2.69-.31-2.87-.79-.36-.79-.23.11,2.34.11,2.34l-1.24-1s.13-1.38-.06-1.5-1-.39-1-.29-.17,1-.17,1-3.29-1.87-3.32-2a1.65,1.65,0,0,1,.11-.53c.16,0,13.59,1.38,13.57,1.57S51.88,45.5,51.52,46.16ZM54,39.92a3.88,3.88,0,0,1-.56,1.89s-14-1-14-1.09S39.5,39,39.5,39c.31,0,14.38-2.88,14.48-2.64A29,29,0,0,1,54,39.92Zm1.23-5.81S39.6,37.74,39.41,37.5s-.79-2-.48-2.18,10-7.89,10.21-8.27.64-5.26.76-5.64S51,18,51,18s1.68-.35,2.06,0a50.18,50.18,0,0,1,2.44,6.08C55.52,24.3,55.22,34.12,55.22,34.12ZM22.47,9.55a2.65,2.65,0,0,0-1.48,4c.74,1,3.71,1,4.23-1.05A2.32,2.32,0,0,0,22.47,9.55Zm2.11,2.76a1.91,1.91,0,0,1-3.05.76,1.91,1.91,0,0,1,1.07-2.88A1.67,1.67,0,0,1,24.57,12.31ZM50.79,22.2a33.31,33.31,0,0,0-.55,3.89c0,.12,1.06,0,1.06,0s.33-3.63.27-3.76A1,1,0,0,0,50.79,22.2Zm-8.36-9.93a2.32,2.32,0,0,0-2.75-2.95,2.65,2.65,0,0,0-1.48,4C38.94,14.35,41.91,14.32,42.43,12.28ZM39.81,10a1.67,1.67,0,0,1,2,2.12,1.91,1.91,0,0,1-3.05.76A1.91,1.91,0,0,1,39.81,10ZM20.65,31a3.46,3.46,0,0,0,1.86-5.16,4.2,4.2,0,0,0-5.16-1.46A3.85,3.85,0,0,0,15.26,29C15.68,31,18.26,31.92,20.65,31Zm-2.92-5.92a3.31,3.31,0,0,1,4.06,1.15,2.73,2.73,0,0,1-1.47,4.06c-1.88.73-3.91,0-4.24-1.59A3,3,0,0,1,17.73,25.08Zm2.21-2.76a4.47,4.47,0,0,1,1.32-1.12c1-.68,2.6-1.05,2.6-1.18a2.28,2.28,0,0,0-.23-.75c-.1-.12-.34.07-2.32,1a7.47,7.47,0,0,0-2.5,1.61C18.84,22.1,19.94,22.33,19.94,22.33ZM31.1,33c-2,.41-3,2.81-2.31,4.89s5,1.78,5.65-.3S33.6,32.51,31.1,33Zm2.58,4.2c-.5,1.52-3.6,1.74-4.14.22a2.7,2.7,0,0,1,1.69-3.58C33.05,33.49,34.17,35.72,33.67,37.24Z"/></g></svg>